<?xml version="1.0" encoding="utf-8"?>
<!-- Generator: Adobe Illustrator 16.0.0, SVG Export Plug-In . SVG Version: 6.00 Build 0)  -->
<!DOCTYPE svg PUBLIC "-//W3C//DTD SVG 1.1//EN" "http://www.w3.org/Graphics/SVG/1.1/DTD/svg11.dtd">
<svg version="1.1" id="Ebene_1" xmlns="http://www.w3.org/2000/svg" xmlns:xlink="http://www.w3.org/1999/xlink" x="0px" y="0px"
	 width="841.891px" height="595.281px" viewBox="0 0 841.891 595.281" enable-background="new 0 0 841.891 595.281"
	 xml:space="preserve">
<path fill="#182A46" d="M348.71,318.441c6.587-11.141,8.015-24.682,3.523-36.922c-5.326-14.518-15.776-23.639-30.386-27.947
	c0.896-1.064,1.948-2.143,2.798-3.361c0.85-1.223,1.497-2.588,2.259-3.936c4.306,1.363,8.394,3.309,12.269,5.756
	c0.139-0.125,0.247-0.217,0.351-0.318c3.807-3.807,7.616-7.611,11.419-11.422c1.521-1.521,3.037-1.543,4.538,0.002
	c2.342,2.41,4.636,4.865,7,7.252c1.395,1.41,2.888,2.719,4.331,4.08c1.476,1.395,1.52,2.979,0.098,4.406
	c-2.589,2.598-5.186,5.188-7.792,7.768c-1.361,1.35-2.748,2.67-4.139,4.02c3.443,5.402,5.795,11.09,7.136,17.193
	c0.413,0,0.737,0,1.061,0c5.327,0.002,10.654-0.004,15.981,0.006c1.612,0.002,2.774,1.045,2.781,2.602
	c0.027,5.711,0.023,11.422,0,17.135c-0.005,1.43-1.239,2.621-2.608,2.627c-2.868,0.008-5.735,0.002-8.603,0.002
	c-2.865,0.002-5.731,0-8.612,0c-1.025,4.439-2.45,8.668-4.593,12.709C354.729,318.763,351.814,318.248,348.71,318.441z"/>
<path fill="#182A46" d="M264.34,320.089c-2.143-4.039-3.566-8.27-4.593-12.707c-2.88,0-5.746,0-8.609,0
	c-2.868-0.002-5.736,0.004-8.604-0.004c-1.37-0.004-2.602-1.197-2.608-2.627c-0.022-5.711-0.026-11.423,0-17.134
	c0.01-1.557,1.171-2.598,2.782-2.602c5.327-0.008,10.654-0.004,15.981-0.004c0.324,0,0.646,0,1.061,0
	c1.341-6.104,3.691-11.793,7.135-17.193c-1.39-1.35-2.775-2.672-4.139-4.02c-2.604-2.582-5.203-5.172-7.792-7.77
	c-1.421-1.428-1.378-3.012,0.1-4.404c1.441-1.361,2.937-2.672,4.33-4.08c2.364-2.387,4.658-4.844,7-7.254
	c1.5-1.543,3.019-1.523,4.537-0.002c3.806,3.811,7.613,7.617,11.42,11.422c0.104,0.102,0.211,0.195,0.351,0.32
	c3.875-2.449,7.962-4.396,12.269-5.758c0.764,1.35,1.409,2.713,2.26,3.936c0.849,1.221,1.899,2.297,2.799,3.363
	c-14.61,4.309-25.062,13.43-30.388,27.947c-4.488,12.238-3.063,25.782,3.523,36.921C270.048,318.248,267.133,318.763,264.34,320.089
	z"/>
<path fill="#182A46" d="M299.772,347.693c-3.59-1.291-7.003-2.498-10.397-3.752c-0.878-0.326-1.696-0.809-2.583-1.236
	c1.335-2.793,1.912-5.68,1.703-8.721c14.669,8.02,29.397,8.145,44.281,0.379c-0.001,2.977,0.751,5.783,2.202,8.402
	c-4.109,2.119-8.347,3.631-12.834,4.625c0,0.367,0,0.721,0,1.07c0,5.238,0.002,10.477,0.001,15.715c0,1.98-1.083,3.07-3.067,3.064
	c-4.88-0.014-9.76-0.035-14.64-0.049c-0.502-0.004-1.004,0.045-1.506,0.053c-2.025,0.02-3.094-1-3.104-3.02
	c-0.029-5.234-0.04-10.473-0.057-15.709C299.771,348.166,299.772,347.812,299.772,347.693z"/>
<g>
	<path fill="#182A46" d="M393.822,271.835c5.042-0.811,11.613-1.26,18.545-1.26c11.523,0,18.996,2.068,24.849,6.48
		c6.303,4.682,10.264,12.154,10.264,22.868c0,11.613-4.231,19.625-10.083,24.576c-6.393,5.313-16.115,7.832-27.998,7.832
		c-7.112,0-12.154-0.449-15.575-0.9L393.822,271.835L393.822,271.835z M407.597,321.349c1.17,0.271,3.061,0.271,4.771,0.271
		c12.425,0.09,20.526-6.752,20.526-21.246c0.09-12.604-7.292-19.266-19.086-19.266c-3.063,0-5.042,0.27-6.212,0.541L407.597,321.349
		L407.597,321.349z"/>
	<path fill="#182A46" d="M492.58,306.046h-22.324v14.404h24.938v11.252H456.48v-60.678h37.452v11.254h-23.678v12.604h22.324
		L492.58,306.046L492.58,306.046z"/>
	<path fill="#182A46" d="M504.555,271.835c4.229-0.721,10.173-1.26,18.546-1.26c8.462,0,14.494,1.619,18.545,4.859
		c3.871,3.063,6.482,8.104,6.482,14.045s-1.98,10.983-5.582,14.405c-4.684,4.41-11.613,6.393-19.718,6.393
		c-1.801,0-3.421-0.092-4.682-0.271v21.697h-13.594L504.555,271.835L504.555,271.835z M518.147,299.384
		c1.171,0.271,2.61,0.359,4.592,0.359c7.292,0,11.794-3.691,11.794-9.903c0-5.582-3.872-8.914-10.714-8.914
		c-2.791,0-4.682,0.271-5.672,0.541V299.384L518.147,299.384z"/>
	<path fill="#182A46" d="M565.593,316.128l-4.321,15.574h-14.225l18.546-60.678h18.006l18.813,60.678h-14.765l-4.682-15.574H565.593
		z M580.985,305.865l-3.781-12.874c-1.08-3.602-2.158-8.104-3.061-11.703h-0.18c-0.9,3.6-1.803,8.191-2.791,11.703l-3.604,12.874
		H580.985z"/>
</g>
<path fill="#182A46" d="M360.03,329.013c-2.278-4.369-8.086-8.113-15.252-5.309c-6.063-7.387-12.133-14.787-18.213-22.197
	c0.827-1.371,1.616-2.721,2.46-4.035c0.126-0.195,0.512-0.318,0.773-0.314c1.291,0.018,2.603,0.264,3.867,0.111
	c6.643-0.792,11.073-7.208,9.563-13.726c-1.039-4.48-4.832-8.004-9.305-8.639c-4.777-0.68-9.378,1.529-11.609,5.76
	c-0.544,1.029-1.05,1.342-2.172,1.182c-2.005-0.289-4.035-0.404-6.077-0.596c-0.019-0.232-0.036-0.377-0.036-0.521
	c-0.001-9.383,0.004-18.766-0.014-28.146c-0.001-0.559,0.221-0.727,0.71-0.896c5.692-1.965,9.009-7.809,7.734-13.582
	c-1.282-5.816-6.834-9.846-12.662-9.189c-6.048,0.682-10.559,5.697-10.546,11.727c0.013,4.975,3.222,9.434,7.976,11.027
	c0.522,0.176,0.754,0.377,0.729,0.973c-0.046,1.063,0.03,2.129,0.029,3.193c-0.007,7.221-0.021,14.443-0.031,21.666
	c-0.002,1.053,0,2.105,0,3.184c-2.079-0.189-4.021-0.377-5.963-0.541c-0.59-0.051-0.872-0.246-1.047-0.9
	c-1.602-5.967-7.512-9.457-13.54-8.055c-4.877,1.135-8.376,5.34-8.663,10.408c-0.281,5.002,2.809,9.619,7.54,11.252
	c2.047,0.707,4.134,0.893,6.244,0.35c1.438,2.598,2.837,5.126,4.252,7.685c-6.716,7.932-13.418,15.846-20.104,23.74
	c-6.111-2.633-12.168-0.121-14.97,4.492c-2.933,4.826-2.049,11.188,2.019,14.738c4.477,3.908,10.737,4.186,15.146,0.68
	c2.313-1.84,3.784-4.203,4.339-7.098c0.613-3.189-0.098-6.141-1.864-8.85c6.203-7.326,12.386-14.625,18.623-21.992
	c1.011,1.844,1.939,3.588,2.919,5.305c0.302,0.525,0.316,0.832-0.122,1.346c-2.396,2.797-3.313,6.066-2.523,9.662
	c1.384,6.309,7.018,9.967,13.368,8.818c5.91-1.066,10.094-7.383,8.811-13.234c-0.459-2.096-1.371-3.939-2.771-5.549
	c1.192-1.969,2.358-3.891,3.563-5.873c5.688,6.932,11.273,13.738,16.854,20.539c-3.728,5.551-2.259,12.203,2.079,15.871
	c4.062,3.438,10.438,3.566,14.758,0.152C361.314,340.14,362.609,333.96,360.03,329.013z M304.89,240.447
	c0-3.338,2.706-6.045,6.044-6.045s6.044,2.707,6.044,6.045c0,3.338-2.706,6.045-6.044,6.045S304.89,243.785,304.89,240.447z
	 M311.305,326.998c-3.34,0-6.046-2.705-6.046-6.045c0-3.338,2.706-6.045,6.046-6.045c3.338,0,6.044,2.707,6.044,6.045
	C317.349,324.292,314.643,326.998,311.305,326.998z M323.411,294.501c-1.858,3.119-3.751,6.221-5.631,9.329
	c-1.175,1.943-2.347,3.891-3.433,5.689c-1.762,0-3.398-0.041-5.032,0.021c-0.557,0.02-0.698-0.275-0.898-0.637
	c-2.639-4.775-5.281-9.555-7.923-14.328c-0.7-1.268-1.389-2.539-2.112-3.793c-0.237-0.412-0.22-0.664,0.099-1.074
	c0.788-1.021,1.464-2.129,2.299-3.371c6.635,0.617,13.425,1.248,20.269,1.883c0.47,1.959,1.256,3.744,2.55,5.295
	C323.733,293.685,323.577,294.224,323.411,294.501z"/>
</svg>
